# Blender v3.0.1 OBJ File: 'hex_slope_down03.blend'
# www.blender.org
mtllib hex_slope_down03.mtl
o Cylinder_-convcol_Cylinder
v 0.000000 -8.000000 -1.000000
v 0.000000 0.000000 -1.000000
v 0.866025 -8.000000 -0.500000
v 0.866025 -0.250000 -0.500000
v 0.866025 -8.000000 0.500000
v 0.866025 0.000000 0.500000
v -0.000000 -8.000000 1.000000
v -0.000000 0.000000 1.000000
v -0.866025 -8.000000 0.500000
v -0.866025 -0.250000 0.500000
v -0.866025 -8.000000 -0.500000
v -0.866025 0.000000 -0.500000
v -0.000000 0.000000 0.000001
vt 1.000000 0.500000
vt 1.000000 1.000000
vt 0.833333 1.000000
vt 0.833333 0.500000
vt 0.666667 1.000000
vt 0.666667 0.500000
vt 0.500000 1.000000
vt 0.500000 0.500000
vt 0.333333 1.000000
vt 0.333333 0.500000
vt 0.457846 0.370000
vt 0.250000 0.250000
vt 0.457846 0.130000
vt 0.166667 1.000000
vt 0.166667 0.500000
vt -0.000000 1.000000
vt -0.000000 0.500000
vt 0.250000 0.010000
vt 0.042154 0.130000
vt 0.250000 0.490000
vt 0.042154 0.370000
vt 0.750000 0.490000
vt 0.957846 0.370000
vt 0.957846 0.130000
vt 0.750000 0.010000
vt 0.542154 0.130000
vt 0.542154 0.370000
vn 0.5000 0.0000 -0.8660
vn 1.0000 0.0000 0.0000
vn 0.5000 0.0000 0.8660
vn -0.5000 0.0000 0.8660
vn 0.1387 0.9608 -0.2402
vn -1.0000 0.0000 0.0000
vn -0.5000 0.0000 -0.8660
vn -0.2774 0.9608 0.0000
vn 0.2774 0.9608 0.0000
vn -0.1387 0.9608 0.2402
vn 0.0000 -1.0000 0.0000
vn 0.0000 1.0000 0.0000
usemtl None
s off
f 1/1/1 2/2/1 4/3/1 3/4/1
f 3/4/2 4/3/2 6/5/2 5/6/2
f 5/6/3 6/5/3 8/7/3 7/8/3
f 7/8/4 8/7/4 10/9/4 9/10/4
f 4/11/5 13/12/5 6/13/5
f 9/10/6 10/9/6 12/14/6 11/15/6
f 11/15/7 12/14/7 2/16/7 1/17/7
f 8/18/8 13/12/8 10/19/8
f 13/12/9 4/11/9 2/20/9
f 10/19/10 13/12/10 12/21/10
f 1/22/11 3/23/11 5/24/11 7/25/11 9/26/11 11/27/11
f 6/13/12 13/12/12 8/18/12
f 12/21/12 13/12/12 2/20/12
